<?xml version="1.0" encoding="UTF-8"?>
<svg width="204px" height="52px" viewBox="0 0 204 52" version="1.1" xmlns="http://www.w3.org/2000/svg" xmlns:xlink="http://www.w3.org/1999/xlink">
    <title>登陆logo</title>
    <defs>
        <linearGradient x1="3.59242925e-06%" y1="49.9935243%" x2="99.9793388%" y2="49.9935243%" id="linearGradient-1">
            <stop stop-color="#00A3F1" offset="0%"></stop>
            <stop stop-color="#029DF1" offset="14%"></stop>
            <stop stop-color="#088DF1" offset="32%"></stop>
            <stop stop-color="#1173F1" offset="53%"></stop>
            <stop stop-color="#1F4EF2" offset="75%"></stop>
            <stop stop-color="#301FF2" offset="98%"></stop>
            <stop stop-color="#311BF2" offset="100%"></stop>
        </linearGradient>
        <linearGradient x1="0.0192826841%" y1="50.0001975%" x2="100%" y2="50.0001975%" id="linearGradient-2">
            <stop stop-color="#00A3F1" offset="0%"></stop>
            <stop stop-color="#029DF1" offset="14%"></stop>
            <stop stop-color="#088DF1" offset="32%"></stop>
            <stop stop-color="#1173F1" offset="53%"></stop>
            <stop stop-color="#1F4EF2" offset="75%"></stop>
            <stop stop-color="#301FF2" offset="98%"></stop>
            <stop stop-color="#311BF2" offset="100%"></stop>
        </linearGradient>
    </defs>
    <g id="官网更新dc" stroke="none" stroke-width="1" fill="none" fill-rule="evenodd">
        <g id="登陆logo">
            <rect id="矩形备份-32" x="0" y="0" width="204" height="52"></rect>
            <g id="资源-68备份" transform="translate(5, 7)">
                <path d="M178.781173,16.5169223 L181.891855,16.5169223 L181.891855,26.8930493 L178.781173,26.8930493 Z M178.781173,12.0979933 L181.891855,12.0979933 L181.891855,15.208675 L178.781173,15.208675 Z M140.498764,26.8948463 C139.435243,26.9191084 138.381801,26.6841193 137.429414,26.2101729 C135.696184,25.345128 134.620135,23.5552164 134.669156,21.6187277 C134.652558,20.6654963 134.892111,19.7252813 135.362815,18.8962074 C135.821176,18.1000797 136.495216,17.4497115 137.307216,17.0200944 C138.173826,16.5589833 139.143472,16.3258477 140.124979,16.3426092 C141.067314,16.3315301 141.997523,16.5557437 142.831326,16.9949358 C143.626291,17.4150353 144.288888,18.0477683 144.745177,18.8225287 C145.234108,19.6865346 145.477691,20.6677031 145.449618,21.6600597 C145.449618,21.7750705 145.449618,21.9044576 145.431647,22.0518151 C145.413677,22.1991727 145.327419,22.5082641 145.31484,22.6340571 L136.990936,22.6340571 L137.070006,20.1757021 L143.832279,20.1757021 L142.669592,21.2377546 C142.694285,20.7551148 142.58877,20.2747123 142.364095,19.8468432 C142.155749,19.4622622 141.844681,19.1431064 141.465573,18.9249601 C141.059401,18.6952829 140.598652,18.5797851 140.132167,18.5907101 C139.662966,18.5809916 139.199636,18.6963589 138.789776,18.9249601 C138.407686,19.1440967 138.095995,19.4676316 137.891255,19.8576255 C137.666207,20.2956975 137.554387,20.7831318 137.56599,21.2754925 L137.56599,21.7337385 C137.552958,22.2550723 137.685509,22.7697181 137.94876,23.2198932 C138.198271,23.634442 138.562027,23.9682494 138.996436,24.1813112 C139.496478,24.4149163 140.04409,24.5287457 140.595804,24.5137642 C141.079933,24.5224763 141.561242,24.438293 142.013671,24.2657722 C142.436776,24.0953517 142.822109,23.8431448 143.147606,23.5235934 L144.729004,25.2379726 C144.529973,25.4624667 144.30904,25.6665433 144.069489,25.8471702 C143.727827,26.1017615 143.35374,26.3096547 142.957119,26.465353 C142.172992,26.7655667 141.338234,26.9114053 140.498764,26.8948463 L140.498764,26.8948463 Z M177.532229,22.2063608 C177.310503,21.8373325 176.995689,21.533054 176.619331,21.3240127 C176.245085,21.1153025 175.845979,20.9546938 175.431485,20.8459992 C175.017505,20.7360517 174.597488,20.6502481 174.173555,20.589022 C173.753047,20.5297196 173.370277,20.4686201 173.02165,20.4093177 C172.744586,20.3702462 172.476426,20.2832918 172.229154,20.1523406 C172.0779,20.0761476 171.984638,19.9190746 171.990148,19.7498029 C172.001282,19.5294522 172.13638,19.3344658 172.338774,19.2466308 C172.599345,19.0956792 173.045012,19.0184064 173.661398,19.0184064 C174.108005,19.0211635 174.552882,19.0742111 174.987615,19.1765462 C175.46261,19.287307 175.91819,19.4690542 176.338992,19.7156591 L176.500726,19.8091053 L177.469332,17.4082557 C176.912321,17.1099779 176.314816,16.8944643 175.69565,16.7685084 C175.015983,16.6169056 174.321826,16.539777 173.625457,16.5384869 C172.783916,16.5178299 171.946085,16.6568586 171.15632,16.9482127 C170.519944,17.1812376 169.960266,17.5854494 169.538981,18.1162907 C169.15811,18.6155941 168.955068,19.2278822 168.96213,19.8558284 C168.943813,20.3571019 169.061816,20.8539559 169.303568,21.2934629 C169.524779,21.6633633 169.839678,21.9683444 170.216466,22.1776081 C170.593563,22.3865379 170.995745,22.5465654 171.413297,22.6538246 C171.833226,22.7642725 172.259253,22.850078 172.689197,22.9108017 C173.109705,22.9719012 173.490679,23.0318026 173.832117,23.090506 C174.102617,23.131028 174.365145,23.2134846 174.610236,23.3349039 C174.750708,23.3987459 174.839726,23.5400444 174.836664,23.6943125 C174.839477,23.9098047 174.713684,24.1062679 174.51679,24.1938905 C174.274189,24.3358569 173.837508,24.4059416 173.219325,24.4059416 C172.626835,24.4029934 172.037675,24.3170995 171.469005,24.1507615 C170.924316,24.0003852 170.399926,23.7843536 169.907375,23.50742 L168.681791,25.7267683 L168.80399,25.8076352 C169.384771,26.1636598 170.018744,26.424529 170.6819,26.5803638 C171.475496,26.7848291 172.291995,26.8868916 173.111502,26.8840641 C173.978898,26.9057085 174.842819,26.7667987 175.65971,26.4743382 C176.299156,26.2474466 176.86499,25.8511764 177.296816,25.3278247 C177.676007,24.8468425 177.880092,24.2510651 177.875464,23.6386042 C177.891983,23.1390051 177.773405,22.6442034 177.532229,22.2063608 L177.532229,22.2063608 Z M191.65519,22.2063608 C191.433465,21.8373325 191.118651,21.533054 190.742292,21.3240127 C190.368047,21.1153025 189.968941,20.9546938 189.554447,20.8459992 C189.136948,20.7355369 188.713312,20.6497296 188.285734,20.589022 C187.867622,20.5291206 187.483654,20.4692192 187.13383,20.4093177 C186.857399,20.3699729 186.589876,20.2830278 186.343131,20.1523406 C186.191876,20.0761476 186.098614,19.9190746 186.104124,19.7498029 C186.115347,19.5300099 186.249539,19.3353272 186.450953,19.2466308 C186.713322,19.0956792 187.158988,19.0184064 187.773577,19.0184064 C188.220784,19.0210591 188.666268,19.0741072 189.101592,19.1765462 C189.576587,19.287307 190.032167,19.4690542 190.452968,19.7156591 L190.614702,19.8091053 L191.583309,17.4082557 C191.026298,17.1099779 190.428792,16.8944643 189.809627,16.7685084 C189.1325,16.6156379 188.440781,16.5367049 187.746622,16.5330957 C186.90568,16.512623 186.068472,16.6516495 185.279281,16.9428216 C184.642906,17.1758465 184.083228,17.5800583 183.661943,18.1108996 C182.99028,19.0432661 182.898625,20.273669 183.424733,21.29526 C183.647106,21.6648623 183.962488,21.9697104 184.339428,22.1794052 C184.716525,22.3883349 185.118707,22.5483624 185.536259,22.6556216 C185.956146,22.7662506 186.382184,22.8520582 186.812159,22.9125988 C187.23087,22.9736982 187.61364,23.0330007 187.955079,23.0923031 C188.225579,23.1328251 188.488106,23.2152816 188.733198,23.336701 C188.87367,23.400543 188.962688,23.5418414 188.959626,23.6961096 C188.959666,23.9108001 188.834757,24.1058824 188.639752,24.1956876 C188.395354,24.337654 187.96047,24.4077386 187.342287,24.4077386 C186.749796,24.4047905 186.160637,24.3188966 185.591967,24.1525585 C185.047056,24.0028287 184.52259,23.7867653 184.030336,23.5092171 L182.802956,25.7285653 L182.926952,25.8094323 C183.507733,26.1654568 184.141706,26.426326 184.804862,26.5821608 C185.598457,26.7866261 186.414957,26.8886886 187.234464,26.8858611 C188.101848,26.9073402 188.96574,26.7684352 189.782671,26.4761353 C190.421884,26.2497676 190.987267,25.8533778 191.417981,25.3296218 C191.798714,24.8493689 192.003553,24.2532426 191.998426,23.6404012 C192.015271,23.1401975 191.896682,22.6447321 191.65519,22.2063608 L191.65519,22.2063608 Z M82.3482461,17.0129062 C81.6764301,16.5679099 80.888,16.3315684 80.0821747,16.333624 C78.1555797,16.2982378 76.3599944,17.3058117 75.3863369,18.968644 C74.4126794,20.6314764 74.4126794,22.6904401 75.3863369,24.3532725 C76.3599944,26.0161048 78.1555797,27.0236787 80.0821747,26.9882926 C80.8877066,26.9901326 81.67591,26.7544841 82.3482461,26.3108073 L82.3482461,26.8499202 L85.4589277,26.8499202 L85.4589277,16.4719963 L82.3482461,16.4719963 L82.3482461,17.0129062 Z M80.1217097,23.8776109 C78.9220577,23.84345 77.9672792,22.8610965 77.9672792,21.6609583 C77.9672792,20.46082 78.9220577,19.4784665 80.1217097,19.4443056 L80.1217097,19.4443056 C80.9286925,19.4213262 81.6844071,19.8387199 82.0946782,20.534009 C82.5049494,21.2292981 82.5049494,22.0926184 82.0946782,22.7879075 C81.6844071,23.4831966 80.9286925,23.9005903 80.1217097,23.8776109 Z M91.847416,12.9102568 L88.7295462,12.9102568 L88.7295462,16.4935608 L87.0187611,16.4935608 L87.0187611,19.4802464 L88.7295462,19.4802464 L88.7295462,26.8481232 L91.8420248,26.8481232 L91.8420248,19.4802464 L93.5546069,19.4802464 L93.5546069,16.4935608 L91.8420248,16.4935608 L91.847416,12.9102568 Z M100.104829,16.333624 C99.379304,16.3251105 98.6770321,16.5893443 98.1370669,17.0740057 L98.1370669,16.4899667 L95.0191971,16.4899667 L95.0191971,26.8481232 L98.1298787,26.8481232 L98.1298787,21.212596 C98.0819552,20.3090182 98.7753741,19.5375696 99.6789298,19.4892317 C99.7584747,19.4829447 99.8383917,19.4829447 99.9179366,19.4892317 C100.279677,19.4963857 100.632841,19.6006591 100.940454,19.7911349 L101.204619,19.9474776 L102.387074,16.9949358 L102.173226,16.8871132 C101.540808,16.532761 100.829701,16.3424733 100.104829,16.333624 L100.104829,16.333624 Z M103.4653,16.4719963 L106.575981,16.4719963 L106.575981,26.8481232 L103.4653,26.8481232 Z M118.441857,16.4719963 L114.718384,16.4719963 L112.959078,18.9321483 L111.192585,16.4719963 L107.490676,16.4719963 L111.156644,21.7085799 L107.505053,26.8481232 L111.278843,26.8481232 L112.971658,24.4886056 L114.651893,26.8481232 L118.459827,26.8481232 L114.788468,21.7085799 L118.441857,16.4719963 Z M69.4149268,11 L64.3346859,18.1881724 L59.2346776,11 L56,11 L56,26.8481232 L59.3101534,26.8481232 L59.3101534,16.7631173 L63.1468405,22.1847963 L65.5405019,22.1847963 L69.3664067,16.8152315 L69.3664067,26.8463261 L72.6765601,26.8463261 L72.6765601,11 L69.4149268,11 Z M103.4653,12.0548643 L106.575981,12.0548643 L106.575981,15.1655459 L103.4653,15.1655459 Z M130.667141,22.9251781 C129.882244,23.4660705 128.951752,23.7561837 127.998532,23.757209 C125.817386,23.7626251 123.912029,22.2839255 123.375889,20.1696922 C122.83975,18.055459 123.81022,15.8474903 125.730375,14.8128742 C127.650531,13.778258 130.028309,14.1821276 131.499172,15.792714 L133.77962,13.5104692 C131.531056,11.1372253 128.063068,10.3741707 125.026032,11.5844346 C121.988996,12.7946986 119.996336,15.7338311 119.996336,19.0031315 C119.996336,22.2724319 121.988996,25.2115644 125.026032,26.4218283 C128.063068,27.6320923 131.531056,26.8690377 133.77962,24.4957938 L133.77962,24.4868085 L133.77962,24.4868085 L133.77962,18.8512814 L130.668938,18.9249601 L130.667141,22.9251781 Z M162.81804,26.9882926 C161.755442,27.0127897 160.702968,26.7771245 159.752284,26.3018221 C158.911408,25.8786242 158.205568,25.2288033 157.714437,24.4257091 C157.226166,23.6060569 156.97716,22.6660596 156.99562,21.712174 C156.979598,20.758211 157.219762,19.8174141 157.691076,18.9878566 C158.149801,18.1926414 158.822976,17.5425076 159.633679,17.1117436 C160.498226,16.6539117 161.464276,16.4215157 162.442458,16.4360554 C163.387585,16.4217559 164.321196,16.6448092 165.15779,17.084788 C165.952089,17.5058107 166.61446,18.1383278 167.071641,18.9123808 C167.560828,19.7762844 167.80443,20.7575256 167.776081,21.7499119 C167.776081,21.8649226 167.776081,21.9943098 167.756314,22.1416673 C167.736547,22.2890248 167.652086,22.5981162 167.641303,22.7239093 L159.312008,22.7239093 L159.389281,20.2691484 L166.151555,20.2691484 L164.990665,21.3312008 C165.014476,20.8486343 164.909012,20.3684612 164.685167,19.9402895 C164.476935,19.5551596 164.16588,19.2353945 163.786646,19.0166093 C163.379803,18.7888014 162.91941,18.6740135 162.45324,18.6841563 C161.98427,18.674493 161.521105,18.789199 161.110849,19.0166093 C160.728816,19.2366257 160.417198,19.5607084 160.212327,19.9510717 C159.987466,20.3891473 159.876241,20.8766855 159.888859,21.3689387 L159.888859,21.8271847 C159.876187,22.3476756 160.008062,22.8614897 160.269832,23.3115424 C160.518459,23.7268128 160.882457,24.0608414 161.317509,24.2729604 C161.81719,24.5078183 162.36496,24.6222962 162.916877,24.6072104 C163.40159,24.6159304 163.883489,24.5317505 164.336541,24.3592185 C164.759093,24.1887578 165.14383,23.9365414 165.468678,23.6170397 L167.050076,25.3314188 C166.852118,25.5563174 166.631739,25.7604395 166.392358,25.9406164 C166.049634,26.194565 165.675042,26.4024031 165.278192,26.5587993 C164.49331,26.8585434 163.658056,27.004362 162.81804,26.9882926 Z M151.656605,16.3515944 C150.877073,16.3571996 150.116445,16.5922004 149.469603,17.0272826 L149.469603,16.4881697 L146.358922,16.4881697 L146.358922,26.8481232 L149.469603,26.8481232 L149.469603,21.0436739 C149.428967,20.1329571 150.13319,19.3612058 151.043813,19.3185126 C151.095927,19.3185126 151.146245,19.3185126 151.198359,19.3185126 C151.64661,19.3034863 152.08247,19.4671493 152.410047,19.773495 C152.737625,20.0798407 152.930085,20.5037729 152.945085,20.9520247 C152.945085,20.9897627 152.945085,21.0275006 152.945085,21.0634414 L152.945085,26.8499202 L156.055768,26.8499202 L156.055768,21.004139 C156.057563,18.1342611 154.37014,16.3515944 151.656605,16.3515944 Z" id="形状结合" fill="#004AF0" fill-rule="nonzero"></path>
                <g id="编组-77">
                    <path d="M21.5666198,0.269944404 C22.4696993,0.0871765562 23.3890302,-0.00324086833 24.3104127,0 C31.7571823,0.0266063115 37.7486029,6.16309385 37.7486029,13.6098634 L37.7486029,27.3569058 C37.7486029,29.5017994 36.8964406,31.5588209 35.3796255,33.0753434 C33.8628104,34.5918659 31.8056246,35.4436316 29.6607311,35.4432178 L29.6607311,35.4432178 C25.1947843,35.4432178 21.574419,31.8228526 21.574419,27.3569058 L21.574419,13.5802261 C21.574419,9.11902774 18.0039005,5.42216056 13.544262,5.39096337 C11.3877704,5.37307513 9.313474,6.21733432 7.78241295,7.73609299 C6.25135189,9.25485166 5.39038583,11.3222695 5.39087603,13.4788352 L5.39087603,27.3615854 C5.39173716,28.8504866 6.59897175,30.057023 8.08787322,30.0570227 L8.08787322,30.0570227 C8.80274765,30.0570227 9.48834268,29.77304 9.99383524,29.2675474 C10.4993278,28.7620549 10.7833106,28.0764598 10.7833106,27.3615854 L10.7833106,13.6550994 C10.7833106,11.0641726 12.9031597,8.88972838 15.4940865,8.91624599 C16.5309703,8.92564668 17.5348327,9.2820508 18.3455097,9.92859485 C17.012791,10.6107083 16.1742943,11.9816987 16.1741852,13.4788352 L16.1741852,27.3615854 C16.1741852,29.5062087 15.3222369,31.5629938 13.8057593,33.0794714 C12.2892816,34.5959491 10.2324965,35.4478975 8.08787322,35.4478975 L8.08787322,35.4478975 C5.94216864,35.4483117 3.88427319,34.5959037 2.3673235,33.0783689 C0.850373805,31.5608341 -0.00124041111,29.5026101 0,27.3569058 L0,13.6083036 C0,6.1459354 6.01014027,0 13.4725084,0 C17.0483752,-0.00156660366 20.4783503,1.41778076 23.0074552,3.9457155 C25.5365602,6.47365025 26.9574948,9.90296807 26.9574944,13.4788352 L26.9574944,27.3615854 C26.9574944,28.8502343 28.1642828,30.0570227 29.6529318,30.0570227 L29.6529318,30.0570227 C31.1418332,30.057023 32.3490678,28.8504866 32.3499289,27.3615854 L32.3499289,13.4788352 C32.3486526,7.07368217 27.8419085,1.55319764 21.5666198,0.269944404 Z" id="路径" fill="url(#linearGradient-1)"></path>
                    <path d="M45.2842845,35.5836073 L45.2842845,35.5836073 C46.7837762,35.5827446 47.9991395,34.3673813 48,32.8678897 L48,13.7502508 C48,6.30348122 42.0163787,0.166993673 34.5696091,0.140333886 C33.6466358,0.136240217 32.7256609,0.226665102 31.8211366,0.410331765 C38.0974221,1.69193645 42.6049842,7.2134228 42.6044458,13.6192226 L42.6044458,30.1911706 L42.5654493,32.8273333 C42.5545786,33.5551282 42.836321,34.2568246 43.347476,34.7750178 C43.8586309,35.2932111 44.556409,35.5845225 45.2842845,35.5836073 Z" id="路径" fill="url(#linearGradient-2)"></path>
                </g>
            </g>
        </g>
    </g>
</svg>